<?xml version="1.0" encoding="utf-8"?>
<!-- Generator: Adobe Illustrator 19.0.0, SVG Export Plug-In . SVG Version: 6.00 Build 0)  -->
<svg version="1.1" id="Laag_1" xmlns="http://www.w3.org/2000/svg" xmlns:xlink="http://www.w3.org/1999/xlink" x="0px" y="0px"
	 viewBox="0 0 262 65.673" enable-background="new 0 0 262 65.673" xml:space="preserve">
<metadata><?xpacket begin="﻿" id="W5M0MpCehiHzreSzNTczkc9d"?>
<x:xmpmeta xmlns:x="adobe:ns:meta/" x:xmptk="Adobe XMP Core 5.6-c067 79.157747, 2015/03/30-23:40:42        ">
   <rdf:RDF xmlns:rdf="http://www.w3.org/1999/02/22-rdf-syntax-ns#">
      <rdf:Description rdf:about=""/>
   </rdf:RDF>
</x:xmpmeta>
                                                                                                    
                                                                                                    
                                                                                                    
                                                                                                    
                                                                                                    
                                                                                                    
                                                                                                    
                                                                                                    
                                                                                                    
                                                                                                    
                                                                                                    
                                                                                                    
                                                                                                    
                                                                                                    
                                                                                                    
                                                                                                    
                                                                                                    
                                                                                                    
                                                                                                    
                                                                                                    
                           
<?xpacket end="w"?></metadata>
<path fill="#0099B4" d="M186.017,4.21c-8.54-0.223-6.229,17.448-0.757,19.206c3.754,1.206,6.55-0.919,6.55-0.919l-0.385-2.377
	c0,0-2.212,1.341-4.918,0.476c-2.975-0.952-4.663-13.14-0.839-13.394c2.937-0.196,2.939,8.655,2.939,8.655l4.964-0.624l0.112-1.751
	l-2.669-0.334C191.013,13.146,191.013,4.34,186.017,4.21z"/>
<path fill="#0099B4" d="M188.183,2.314c0,0,5.96-0.337,8.483,2.637c2.461,2.901-0.207,11.552-0.207,11.552l2.551,0.44
	c0,0,3.924-8.495,0.659-13.525c-2.68-4.132-10.29-3.361-10.29-3.361L188.183,2.314z"/>
<path fill="#0099B4" d="M204.174,37.372l1.813-1.923c-2.098-4.047-6.066-7.296-11.564-9.898l-1.306,3.352
	C198.226,31.225,201.992,33.739,204.174,37.372z"/>
<path fill="#0099B4" d="M164.515,28.641l1.561-3.451c-1.415-0.594-2.993-0.992-4.814-1.111c-6.846-0.445-11.357,0.458-16.107-6.119
	l-1.781,1.251c1.637,3.365,5.173,8.396,14.517,8.341C160.687,27.536,162.82,27.95,164.515,28.641z"/>
<path fill="#0099B4" d="M159.065,34.684c0.046,0,0.968-3.099,0.968-3.099c-5.69-0.522-9.569,0.216-13.604-5.032l-1.528,1.384
	c1.635,2.966,4.951,6.765,12.66,6.721C158.075,34.659,158.596,34.657,159.065,34.684z"/>
<path fill="#0099B4" d="M178.871,26.72c5.363,0.774,10.059,3.195,10.059,3.195l-1.142,2.811c0,0-14.527-5.687-18.636,0.31
	c-2.241,3.269-1.418,10.062-1.418,10.062l-2.538-0.349c0,0-1.613-7.447,0.352-10.902c2.25-3.956,5.984-5.274,9.815-5.359
	c-1.437-5.46-6.019-7.188-16.473-6.965c-11.322,0.241-14.875-6.269-16.475-9.901l1.982-1.266c5.446,8.016,10.679,7.596,18.514,7.669
	C173.821,16.129,177.674,19.672,178.871,26.72z"/>
<g>
	<g>
		<path fill="#43306E" d="M0,49.807h1.326l3.131,4.011c0.335,0.435,0.602,0.802,0.825,1.137h0.022
			c-0.022-0.39-0.022-0.836-0.022-1.237v-3.911H6.63v7.343H5.404l-3.243-4.177c-0.323-0.412-0.58-0.78-0.824-1.125H1.315
			c0.023,0.301,0.023,0.723,0.023,1.136v4.166H0V49.807z"/>
		<path fill="#43306E" d="M8.061,54.52c0-1.582,0.869-2.774,2.373-2.774c1.482,0,2.34,1.069,2.34,2.819v0.312H9.398
			C9.42,55.69,10,56.214,10.88,56.214c0.535,0,0.958-0.145,1.336-0.356l0.402,0.914c-0.557,0.346-1.214,0.491-1.862,0.491
			C8.831,57.262,8.061,55.946,8.061,54.52z M11.426,53.952c-0.022-0.602-0.312-1.193-1.014-1.193c-0.657,0-1.025,0.558-1.025,1.193
			H11.426z"/>
		<path fill="#43306E" d="M13.717,54.565c0-1.671,1.213-2.819,2.885-2.819c0.201,0,0.501,0.023,0.713,0.067v-2.551h1.338v7.61
			c-0.524,0.256-1.293,0.39-1.938,0.39C14.998,57.262,13.717,56.302,13.717,54.565z M17.316,56.069v-3.154
			c-0.201-0.045-0.367-0.077-0.635-0.077c-0.924,0-1.604,0.625-1.604,1.704c0,1.026,0.657,1.615,1.616,1.615
			C16.87,56.157,17.138,56.136,17.316,56.069z"/>
		<path fill="#43306E" d="M19.874,54.52c0-1.582,0.87-2.774,2.373-2.774c1.482,0,2.34,1.069,2.34,2.819v0.312h-3.376
			c0.023,0.813,0.602,1.338,1.481,1.338c0.535,0,0.958-0.145,1.338-0.356l0.4,0.914c-0.556,0.346-1.214,0.491-1.86,0.491
			C20.643,57.262,19.874,55.946,19.874,54.52z M23.239,53.952c-0.023-0.602-0.312-1.193-1.014-1.193
			c-0.657,0-1.026,0.558-1.026,1.193H23.239z"/>
		<path fill="#43306E" d="M25.754,51.88h1.125l0.144,0.591c0.48-0.48,0.915-0.725,1.45-0.725c0.244,0,0.535,0.067,0.747,0.213
			l-0.469,1.125c-0.233-0.145-0.446-0.179-0.602-0.179c-0.344,0-0.636,0.146-1.069,0.523v3.721h-1.326V51.88z"/>
		<path fill="#43306E" d="M30.041,49.262h1.324v6.34c0,0.367,0.145,0.479,0.39,0.479c0.068,0,0.223-0.022,0.335-0.067l0.256,1.025
			c-0.312,0.134-0.68,0.19-0.981,0.19c-0.88,0-1.324-0.435-1.324-1.271V49.262z"/>
		<path fill="#43306E" d="M36.333,56.648c-0.378,0.346-0.858,0.614-1.515,0.614c-1.003,0-1.75-0.669-1.75-1.683
			c0-0.713,0.346-1.159,0.892-1.437c0.367-0.19,0.824-0.279,1.359-0.301l0.903-0.034v-0.168c0-0.613-0.402-0.88-1.015-0.88
			c-0.523,0-1.003,0.167-1.381,0.368l-0.435-0.858c0.624-0.346,1.304-0.524,2.039-0.524c1.415,0,2.117,0.646,2.117,1.916v2.139
			c0,0.614,0.023,1.07,0.1,1.348h-1.115L36.333,56.648z M35.509,54.721c-0.346,0.011-0.592,0.068-0.769,0.168
			c-0.223,0.122-0.324,0.334-0.324,0.602c0,0.456,0.301,0.724,0.779,0.724c0.491,0,0.847-0.245,1.026-0.39v-1.125L35.509,54.721z"/>
		<path fill="#43306E" d="M38.959,51.88h1.136l0.133,0.591c0.558-0.435,1.149-0.725,1.805-0.725c0.836,0,1.694,0.412,1.694,1.916
			v3.487H42.39v-3.075c0-0.646-0.134-1.17-0.814-1.17c-0.434,0-0.901,0.233-1.292,0.558v3.687h-1.326V51.88z"/>
		<path fill="#43306E" d="M44.882,54.565c0-1.671,1.214-2.819,2.885-2.819c0.201,0,0.501,0.023,0.713,0.067v-2.551h1.336v7.61
			c-0.523,0.256-1.292,0.39-1.938,0.39C46.163,57.262,44.882,56.302,44.882,54.565z M48.48,56.069v-3.154
			c-0.201-0.045-0.367-0.077-0.636-0.077c-0.924,0-1.603,0.625-1.603,1.704c0,1.026,0.657,1.615,1.615,1.615
			C48.034,56.157,48.303,56.136,48.48,56.069z"/>
		<path fill="#43306E" d="M51.295,55.779c0.402,0.256,0.903,0.435,1.438,0.435c0.534,0,0.924-0.156,0.924-0.558
			c0-0.891-2.473-0.556-2.473-2.316c0-0.936,0.758-1.594,1.994-1.594c0.591,0,1.115,0.101,1.55,0.256v1.126
			c-0.447-0.19-0.936-0.335-1.493-0.335c-0.446,0-0.747,0.133-0.747,0.48c0,0.835,2.473,0.511,2.473,2.35
			c0,1.159-1.003,1.638-2.139,1.638c-0.824,0-1.504-0.245-1.939-0.513L51.295,55.779z"/>
		<path fill="#43306E" d="M58.956,49.807h1.336v7.343h-1.336V49.807z"/>
		<path fill="#43306E" d="M61.961,51.88h1.137l0.133,0.591c0.558-0.435,1.149-0.725,1.805-0.725c0.836,0,1.694,0.412,1.694,1.916
			v3.487h-1.338v-3.075c0-0.646-0.133-1.17-0.812-1.17c-0.435,0-0.903,0.233-1.293,0.558v3.687h-1.327V51.88z"/>
		<path fill="#43306E" d="M68.141,55.779c0.401,0.256,0.903,0.435,1.438,0.435c0.534,0,0.924-0.156,0.924-0.558
			c0-0.891-2.473-0.556-2.473-2.316c0-0.936,0.758-1.594,1.994-1.594c0.591,0,1.114,0.101,1.55,0.256v1.126
			c-0.446-0.19-0.936-0.335-1.493-0.335c-0.447,0-0.748,0.133-0.748,0.48c0,0.835,2.474,0.511,2.474,2.35
			c0,1.159-1.003,1.638-2.14,1.638c-0.824,0-1.504-0.245-1.938-0.513L68.141,55.779z"/>
		<path fill="#43306E" d="M73.463,55.846v-2.93h-0.947V51.88h0.947v-1.226l1.326-0.389v1.616h1.594l-0.323,1.036h-1.271v2.607
			c0,0.491,0.167,0.669,0.512,0.669c0.313,0,0.602-0.123,0.802-0.257l0.401,0.913c-0.379,0.257-1.014,0.413-1.537,0.413
			C74.031,57.262,73.463,56.727,73.463,55.846z"/>
		<path fill="#43306E" d="M77.316,50.231c0-0.446,0.346-0.802,0.813-0.802c0.468,0,0.824,0.346,0.824,0.802
			c0,0.435-0.356,0.791-0.824,0.791C77.661,51.022,77.316,50.677,77.316,50.231z M77.461,51.88h1.336v5.269h-1.336V51.88z"/>
		<path fill="#43306E" d="M80.745,55.846v-2.93h-0.947V51.88h0.947v-1.226l1.326-0.389v1.616h1.594l-0.323,1.036H82.07v2.607
			c0,0.491,0.167,0.669,0.512,0.669c0.312,0,0.602-0.123,0.802-0.257l0.401,0.913c-0.379,0.257-1.014,0.413-1.537,0.413
			C81.313,57.262,80.745,56.727,80.745,55.846z"/>
		<path fill="#43306E" d="M84.875,56.225c-0.122-0.29-0.178-0.613-0.178-1.103V51.88h1.326v3.109c0,0.278,0.033,0.489,0.111,0.657
			c0.134,0.311,0.39,0.479,0.791,0.479c0.435,0,0.847-0.211,1.08-0.469V51.88h1.338v3.966c0,0.569,0.011,1.026,0.089,1.304h-1.137
			l-0.201-0.545c-0.4,0.356-0.947,0.657-1.637,0.657C85.944,57.262,85.199,57.049,84.875,56.225z"/>
		<path fill="#43306E" d="M90.998,56.225c-0.122-0.29-0.177-0.613-0.177-1.103V51.88h1.326v3.109c0,0.278,0.033,0.489,0.11,0.657
			c0.134,0.311,0.391,0.479,0.792,0.479c0.434,0,0.846-0.211,1.08-0.469V51.88h1.336v3.966c0,0.569,0.012,1.026,0.09,1.304h-1.138
			l-0.201-0.545c-0.4,0.356-0.946,0.657-1.637,0.657C92.068,57.262,91.322,57.049,90.998,56.225z"/>
		<path fill="#43306E" d="M97.457,55.846v-2.93H96.51V51.88h0.947v-1.226l1.327-0.389v1.616h1.594l-0.324,1.036h-1.27v2.607
			c0,0.491,0.167,0.669,0.512,0.669c0.312,0,0.602-0.123,0.802-0.257l0.4,0.913c-0.378,0.257-1.013,0.413-1.537,0.413
			C98.025,57.262,97.457,56.727,97.457,55.846z"/>
	</g>
	<g>
		<path fill="#43306E" d="M103.981,51.872h1.348l1.305,3.587h0.022l1.282-3.587h1.336l-2.14,5.304h-1.002L103.981,51.872z"/>
		<path fill="#43306E" d="M113.136,56.64c-0.378,0.346-0.858,0.614-1.515,0.614c-1.003,0-1.75-0.669-1.75-1.683
			c0-0.713,0.346-1.158,0.892-1.438c0.367-0.19,0.824-0.278,1.359-0.299l0.903-0.035v-0.167c0-0.613-0.401-0.881-1.015-0.881
			c-0.523,0-1.002,0.168-1.381,0.367l-0.435-0.858c0.625-0.344,1.305-0.522,2.039-0.522c1.415,0,2.118,0.645,2.118,1.915v2.139
			c0,0.614,0.022,1.07,0.099,1.348h-1.114L113.136,56.64z M112.311,54.713c-0.344,0.012-0.59,0.066-0.768,0.167
			c-0.223,0.123-0.323,0.335-0.323,0.603c0,0.456,0.301,0.724,0.779,0.724c0.491,0,0.848-0.245,1.026-0.39v-1.125L112.311,54.713z"
			/>
		<path fill="#43306E" d="M115.762,51.872h1.136l0.134,0.59c0.557-0.435,1.148-0.723,1.805-0.723c0.835,0,1.693,0.412,1.693,1.915
			v3.487h-1.336v-3.075c0-0.646-0.133-1.17-0.813-1.17c-0.435,0-0.903,0.234-1.293,0.557v3.688h-1.326V51.872z"/>
		<path fill="#43306E" d="M124.758,49.8h1.771c0.68,0,1.214,0.1,1.649,0.312c0.758,0.378,1.191,1.091,1.191,2.095
			c0,0.846-0.367,1.727-1.403,2.15c-0.401,0.156-0.903,0.257-1.56,0.257h-0.312v2.528h-1.337V49.8z M126.497,53.521
			c0.355,0,0.646-0.057,0.858-0.168c0.412-0.199,0.613-0.602,0.613-1.147c0-0.479-0.189-0.891-0.58-1.125
			c-0.211-0.123-0.511-0.19-0.913-0.19h-0.378v2.629H126.497z"/>
		<path fill="#43306E" d="M130.748,55.771c0.401,0.256,0.903,0.435,1.438,0.435c0.534,0,0.924-0.157,0.924-0.557
			c0-0.891-2.473-0.556-2.473-2.317c0-0.935,0.758-1.593,1.995-1.593c0.59,0,1.114,0.099,1.549,0.255v1.125
			c-0.447-0.189-0.937-0.335-1.495-0.335c-0.445,0-0.746,0.135-0.746,0.481c0,0.835,2.472,0.511,2.472,2.35
			c0,1.16-1.002,1.638-2.139,1.638c-0.824,0-1.504-0.245-1.938-0.512L130.748,55.771z"/>
		<path fill="#43306E" d="M135.146,58.513c0.246,0.123,0.501,0.201,0.791,0.201c0.591,0,1.058-0.402,1.472-1.605l-2.374-5.237h1.381
			l1.594,3.743h0.023l1.281-3.743h1.347l-2.016,5.436c-0.824,2.195-1.694,2.474-2.652,2.474c-0.435,0-0.824-0.088-1.181-0.244
			L135.146,58.513z"/>
		<path fill="#43306E" d="M141.169,54.545c0-1.636,1.214-2.806,2.786-2.806c0.657,0,1.136,0.178,1.415,0.356v1.125
			c-0.368-0.268-0.769-0.412-1.282-0.412c-0.98,0-1.559,0.735-1.559,1.704c0,1.082,0.59,1.672,1.491,1.672
			c0.491,0,0.859-0.157,1.227-0.358l0.389,0.915c-0.423,0.289-1.08,0.512-1.805,0.512C142.117,57.254,141.169,56.072,141.169,54.545
			z"/>
		<path fill="#43306E" d="M146.615,49.253h1.326v3.198c0.48-0.401,1.081-0.712,1.75-0.712c0.836,0,1.682,0.412,1.682,1.915v3.487
			h-1.326v-3.075c0-0.646-0.134-1.17-0.813-1.17c-0.446,0-0.903,0.234-1.293,0.557v3.688h-1.326V49.253z"/>
		<path fill="#43306E" d="M152.537,54.49c0-1.582,1.058-2.751,2.63-2.751c1.571,0,2.64,1.17,2.64,2.751
			c0,1.582-1.069,2.763-2.64,2.763C153.596,57.254,152.537,56.072,152.537,54.49z M156.438,54.49c0-0.969-0.435-1.682-1.27-1.682
			s-1.271,0.713-1.271,1.682c0,0.98,0.436,1.694,1.271,1.694S156.438,55.47,156.438,54.49z"/>
		<path fill="#43306E" d="M159.03,49.253h1.326v6.342c0,0.366,0.145,0.477,0.39,0.477c0.067,0,0.222-0.023,0.334-0.065l0.257,1.024
			c-0.313,0.134-0.68,0.189-0.981,0.189c-0.88,0-1.326-0.434-1.326-1.269V49.253z"/>
		<path fill="#43306E" d="M162.079,54.49c0-1.582,1.06-2.751,2.63-2.751c1.571,0,2.641,1.17,2.641,2.751
			c0,1.582-1.07,2.763-2.641,2.763C163.138,57.254,162.079,56.072,162.079,54.49z M165.979,54.49c0-0.969-0.434-1.682-1.27-1.682
			c-0.835,0-1.27,0.713-1.27,1.682c0,0.98,0.435,1.694,1.27,1.694C165.545,56.184,165.979,55.47,165.979,54.49z"/>
		<path fill="#43306E" d="M168.048,58.232c0-0.578,0.401-1.036,0.946-1.269c-0.222-0.133-0.344-0.379-0.344-0.657
			c0-0.312,0.2-0.691,0.634-0.992c-0.557-0.323-0.88-0.936-0.88-1.637c0-0.97,0.713-1.938,2.151-1.938
			c0.468,0,0.835,0.11,1.046,0.233c0.056,0.022,0.089,0.012,0.134-0.023c0.278-0.278,0.624-0.456,1.27-0.456
			c0.122,0,0.279,0.011,0.356,0.021l-0.267,0.959c-0.122-0.035-0.267-0.056-0.39-0.056c-0.111,0-0.279,0.021-0.39,0.089
			c0.312,0.334,0.469,0.778,0.469,1.247c0,1.182-0.903,1.951-2.185,1.951c-0.244,0-0.468-0.034-0.645-0.09
			c-0.1,0.168-0.134,0.279-0.134,0.391c0,0.946,3.465,0.065,3.465,2.037c0,0.958-0.958,1.739-2.785,1.739
			C168.951,59.782,168.048,59.146,168.048,58.232z M172.014,58.19c0-0.758-1.637-0.602-2.35-0.882
			c-0.168,0.124-0.423,0.347-0.423,0.692c0,0.524,0.556,0.847,1.437,0.847C171.479,58.847,172.014,58.579,172.014,58.19z
			 M171.523,53.733c0-0.524-0.355-0.991-0.946-0.991c-0.524,0-0.914,0.343-0.914,0.979c0,0.525,0.334,0.98,0.924,0.98
			C171.123,54.701,171.523,54.367,171.523,53.733z"/>
		<path fill="#43306E" d="M174.061,54.512c0-1.582,0.869-2.773,2.373-2.773c1.482,0,2.34,1.069,2.34,2.818v0.312h-3.376
			c0.022,0.814,0.601,1.338,1.481,1.338c0.534,0,0.958-0.145,1.336-0.356l0.401,0.915c-0.556,0.344-1.214,0.489-1.861,0.489
			C174.83,57.254,174.061,55.938,174.061,54.512z M177.426,53.943c-0.023-0.601-0.313-1.191-1.015-1.191
			c-0.656,0-1.025,0.557-1.025,1.191H177.426z"/>
		<path fill="#43306E" d="M179.939,51.872h1.137l0.133,0.59c0.557-0.435,1.148-0.723,1.805-0.723c0.835,0,1.693,0.412,1.693,1.915
			v3.487h-1.336v-3.075c0-0.646-0.134-1.17-0.814-1.17c-0.434,0-0.903,0.234-1.291,0.557v3.688h-1.327V51.872z"/>
	</g>
</g>
<g>
	<path fill="#43306E" d="M216.787,46.859v18.814h-3.343l-11.648-15.53v13.535l3.038,0.307v1.503l-4.322-0.154l-4.187,0.154v-1.503
		l2.87-0.307V47.78c-0.101-0.092-0.541-0.519-1.046-0.767c-0.555-0.273-1.114-0.245-2.397-0.245v-1.626h7.563l10.839,14.087V46.859
		l-3.039-0.245V45.11l4.356,0.062l4.119-0.093v1.504L216.787,46.859z"/>
	<path fill="#43306E" d="M231.374,65.335l-5.977,0.154v-1.535l3.445-0.276V46.89l-3.445-0.276v-1.535l5.977,0.123l5.74-0.123v1.535
		l-3.477,0.276v16.789l3.477,0.276v1.535L231.374,65.335z"/>
	<path fill="#43306E" d="M253.523,57.417c-0.337,0-1.283-0.031-2.194-0.061v6.292l4.018,0.306v1.535l-6.55-0.154l-5.403,0.154
		v-1.503l3.14-0.307V46.9l-3.714-0.302v-1.565c0,0,4.105,0.091,5.808,0.092c1.961,0.001,3.815-0.107,5.639-0.107
		c4.829,0,7.733,2.455,7.733,6.169C262,54.87,258.352,57.417,253.523,57.417z M253.457,46.859c-0.034,0-0.034,0-0.068,0l-2.06,0.031
		v8.808c0.406,0,0.844-0.031,1.283-0.031c1.655,0,4.255-1.258,4.255-4.481C256.867,48.854,256.259,46.859,253.457,46.859z"/>
</g>
</svg>
